<?xml version="1.0" encoding="UTF-8"?>
<svg width="200" height="200" viewBox="0 0 200 200" fill="none" xmlns="http://www.w3.org/2000/svg">
  <!-- Trophy Base -->
  <rect x="85" y="160" width="30" height="20" fill="#C0A875"/>
  <rect x="75" y="150" width="50" height="10" fill="#D4BD89"/>
  
  <!-- Trophy Cup -->
  <path d="M60 40 H140 V120 C140 140 120 150 100 150 C80 150 60 140 60 120 V40Z" fill="#FFD700"/>
  <path d="M60 40 H140 V50 H60Z" fill="#FFC700"/>
  
  <!-- Trophy Handles -->
  <path d="M40 50 C20 50 20 80 40 80 L60 80 V50 L40 50Z" fill="#FFD700"/>
  <path d="M160 50 C180 50 180 80 160 80 L140 80 V50 L160 50Z" fill="#FFD700"/>
  
  <!-- Merchant Text -->
  <text x="100" y="95" font-family="Arial Black" font-size="20" text-anchor="middle" fill="#B88746">MC</text>
</svg>
